<svg xmlns="http://www.w3.org/2000/svg" xmlns:xlink="http://www.w3.org/1999/xlink" width="18.333ex" height="2.843ex" style="vertical-align:-.838ex" aria-labelledby="MathJax-SVG-1-Title" focusable="false" role="img" viewBox="0 -863.1 7893.4 1223.9"><title id="MathJax-SVG-1-Title">Equation</title><defs aria-hidden="true"><path id="E1-MJMATHI-66" stroke-width="1" d="M118 -162Q120 -162 124 -164T135 -167T147 -168Q160 -168 171 -155T187 -126Q197 -99 221 27T267 267T289 382V385H242Q195 385 192 387Q188 390 188 397L195 425Q197 430 203 430T250 431Q298 431 298 432Q298 434 307 482T319 540Q356 705 465 705Q502 703 526 683T550 630Q550 594 529 578T487 561Q443 561 443 603Q443 622 454 636T478 657L487 662Q471 668 457 668Q445 668 434 658T419 630Q412 601 403 552T387 469T380 433Q380 431 435 431Q480 431 487 430T498 424Q499 420 496 407T491 391Q489 386 482 386T428 385H372L349 263Q301 15 282 -47Q255 -132 212 -173Q175 -205 139 -205Q107 -205 81 -186T55 -132Q55 -95 76 -78T118 -61Q162 -61 162 -103Q162 -122 151 -136T127 -157L118 -162Z"/><path id="E1-MJMAIN-2219" stroke-width="1" d="M55 251Q55 328 112 386T249 444T386 388T444 249Q444 171 388 113T250 55Q170 55 113 112T55 251Z"/><path id="E1-MJMATHI-62" stroke-width="1" d="M73 647Q73 657 77 670T89 683Q90 683 161 688T234 694Q246 694 246 685T212 542Q204 508 195 472T180 418L176 399Q176 396 182 402Q231 442 283 442Q345 442 383 396T422 280Q422 169 343 79T173 -11Q123 -11 82 27T40 150V159Q40 180 48 217T97 414Q147 611 147 623T109 637Q104 637 101 637H96Q86 637 83 637T76 640T73 647ZM336 325V331Q336 405 275 405Q258 405 240 397T207 376T181 352T163 330L157 322L136 236Q114 150 114 114Q114 66 138 42Q154 26 178 26Q211 26 245 58Q270 81 285 114T318 219Q336 291 336 325Z"/><path id="E1-MJMAIN-3D" stroke-width="1" d="M56 347Q56 360 70 367H707Q722 359 722 347Q722 336 708 328L390 327H72Q56 332 56 347ZM56 153Q56 168 72 173H708Q722 163 722 153Q722 140 707 133H70Q56 140 56 153Z"/><path id="E1-MJMAIN-28" stroke-width="1" d="M94 250Q94 319 104 381T127 488T164 576T202 643T244 695T277 729T302 750H315H319Q333 750 333 741Q333 738 316 720T275 667T226 581T184 443T167 250T184 58T225 -81T274 -167T316 -220T333 -241Q333 -250 318 -250H315H302L274 -226Q180 -141 137 -14T94 250Z"/><path id="E1-MJMAIN-2295" stroke-width="1" d="M56 250Q56 394 156 488T384 583Q530 583 626 485T722 250Q722 110 625 14T390 -83Q249 -83 153 14T56 250ZM364 542Q308 539 251 509T148 418T96 278V270H369V542H364ZM681 278Q675 338 650 386T592 462T522 509T458 535T412 542H409V270H681V278ZM96 222Q104 150 139 95T219 12T302 -29T366 -42H369V230H96V222ZM681 222V230H409V-42H412Q429 -42 456 -36T521 -10T590 37T649 113T681 222Z"/><path id="E1-MJMAIN-29" stroke-width="1" d="M60 749L64 750Q69 750 74 750H86L114 726Q208 641 251 514T294 250Q294 182 284 119T261 12T224 -76T186 -143T145 -194T113 -227T90 -246Q87 -249 86 -250H74Q66 -250 63 -250T58 -247T55 -238Q56 -237 66 -225Q221 -64 221 250T66 725Q56 737 55 738Q55 746 60 749Z"/><path id="E1-MJMAIN-2296" stroke-width="1" d="M56 250Q56 394 156 488T384 583Q530 583 626 485T722 250Q722 110 625 14T390 -83Q249 -83 153 14T56 250ZM681 278Q669 385 591 463T381 542Q283 542 196 471T96 278V270H681V278ZM275 -42T388 -42T585 32T681 222V230H96V222Q108 107 191 33Z"/></defs><g fill="currentColor" stroke="currentColor" stroke-width="0" aria-hidden="true" transform="matrix(1 0 0 -1 0 0)"><use x="0" y="0" xlink:href="#E1-MJMATHI-66"/><use x="772" y="0" xlink:href="#E1-MJMAIN-2219"/><use x="1495" y="0" xlink:href="#E1-MJMATHI-62"/><use x="2202" y="0" xlink:href="#E1-MJMAIN-3D"/><use x="3259" y="0" xlink:href="#E1-MJMAIN-28"/><use x="3648" y="0" xlink:href="#E1-MJMATHI-66"/><use x="4421" y="0" xlink:href="#E1-MJMAIN-2295"/><use x="5421" y="0" xlink:href="#E1-MJMATHI-62"/><use x="5851" y="0" xlink:href="#E1-MJMAIN-29"/><use x="6463" y="0" xlink:href="#E1-MJMAIN-2296"/><use x="7463" y="0" xlink:href="#E1-MJMATHI-62"/></g></svg>